<svg xmlns="http://www.w3.org/2000/svg" viewBox="0 0 32 32" width="32" height="32">
  <!-- 蓝色天空背景 -->
  <rect width="32" height="32" fill="#00BFFF"/>

  <!-- 绿色草地 -->
  <rect x="0" y="26" width="32" height="6" fill="#32CD32"/>

  <!-- 红色方块胡萝卜主体 -->
  <g transform="translate(10, 8)">
    <!-- 胡萝卜身体（红色方块组成） -->
    <rect x="0" y="6" width="2" height="2" fill="#FF4444"/>
    <rect x="2" y="6" width="2" height="2" fill="#FF3333"/>
    <rect x="4" y="6" width="2" height="2" fill="#FF4444"/>

    <rect x="0" y="8" width="2" height="2" fill="#FF3333"/>
    <rect x="2" y="8" width="2" height="2" fill="#FF2222"/>
    <rect x="4" y="8" width="2" height="2" fill="#FF3333"/>
    <rect x="6" y="8" width="2" height="2" fill="#FF4444"/>

    <rect x="0" y="10" width="2" height="2" fill="#FF4444"/>
    <rect x="2" y="10" width="2" height="2" fill="#FF3333"/>
    <rect x="4" y="10" width="2" height="2" fill="#FF2222"/>
    <rect x="6" y="10" width="2" height="2" fill="#FF3333"/>
    <rect x="8" y="10" width="2" height="2" fill="#FF4444"/>

    <rect x="2" y="12" width="2" height="2" fill="#FF3333"/>
    <rect x="4" y="12" width="2" height="2" fill="#FF2222"/>
    <rect x="6" y="12" width="2" height="2" fill="#FF3333"/>
    <rect x="8" y="12" width="2" height="2" fill="#FF4444"/>

    <rect x="4" y="14" width="2" height="2" fill="#FF3333"/>
    <rect x="6" y="14" width="2" height="2" fill="#FF2222"/>

    <rect x="5" y="16" width="2" height="2" fill="#FF3333"/>

    <!-- 绿色叶子顶部 -->
    <rect x="2" y="2" width="2" height="2" fill="#228B22"/>
    <rect x="4" y="0" width="2" height="2" fill="#32CD32"/>
    <rect x="6" y="2" width="2" height="2" fill="#228B22"/>

    <rect x="3" y="4" width="2" height="2" fill="#32CD32"/>
    <rect x="5" y="4" width="2" height="2" fill="#228B22"/>

    <!-- 更多叶子细节 -->
    <rect x="1" y="4" width="2" height="2" fill="#228B22"/>
    <rect x="7" y="4" width="2" height="2" fill="#228B22"/>
  </g>

  <!-- 小白兔（简化版） -->
  <g transform="translate(24, 24)">
    <rect x="0" y="2" width="2" height="2" fill="#FFFFFF"/>
    <rect x="2" y="2" width="2" height="2" fill="#FFFFFF"/>
    <rect x="1" y="4" width="2" height="2" fill="#FFFFFF"/>
    <rect x="0" y="0" width="1" height="2" fill="#FFFFFF"/>
    <rect x="3" y="0" width="1" height="2" fill="#FFFFFF"/>
  </g>
</svg>